<svg xmlns="http://www.w3.org/2000/svg" width="1080" height="323" viewBox="0 0 1080 323">
  <defs>
    <style>
      .cls-1 {
        fill: #fff;
        fill-rule: evenodd;
      }
    </style>
  </defs>
  <path id="algoComp" class="cls-1" d="M116.134,113.913c0-30.434-12.833-50.967-49.134-50.967-41.8,0-52.434,24.567-52.434,52.067v2.2H51.6v-2.934c0-11.733,2.567-20.533,13.934-20.533s13.2,8.433,13.2,23.1v24.2h-4.4c-34.1,0-65.634,12.467-65.634,59.4v3.3c0,28.6,11.367,55,39.967,55,14.667,0,24.933-5.134,31.534-16.867,0.367,2.567,1.467,10.267,2.2,13.933h34.467c-0.366-7.333-.733-26.766-0.733-38.867V113.913ZM79.467,191.646c0,25.3-5.5,34.1-18.334,34.1-11.733,0-16.5-9.534-16.5-22.734V200.08c0-23.834,11.367-30.434,28.6-30.434h6.233v22ZM185.8,255.813V0.245H148.033V255.813H185.8ZM323.3,113.546c0-20.167.366-35.934,0.733-47.667H291.4a94.324,94.324,0,0,0-1.834,16.867c-2.933-10.267-11.367-19.8-31.167-19.8-36.667,0-46.2,31.9-46.2,57.933v71.5c0,32.633,7.7,59.4,42.167,59.4,15.767,0,26.4-6.6,31.167-17.233V255.08c0,24.2-2.567,35.934-18.334,35.934-15.033,0-16.866-12.834-16.866-17.967v-0.734H212.567v0.734c0,20.9,7.333,49.5,52.8,49.5,53.9,0,57.934-35.2,57.934-77.367V113.546Zm-73.334,9.533c0-18.333,6.6-26.033,18.7-26.033,15.4,0,16.867,13.933,16.867,30.067v55.733c0,23.1-2.567,35.934-18.7,35.934-12.467,0-16.867-9.9-16.867-28.967V123.079Zm156.2-60.133c-33,0-56.467,18.7-56.467,59.767v74.8c0,39.967,18.334,61.234,55.367,61.234,35.567,0,55.734-20.9,55.734-61.6V124.179C460.8,84.212,440.267,62.946,406.167,62.946Zm-0.733,33.734c13.566,0,17.6,10.634,17.6,25.3v76.267c0,17.6-4.767,27.134-17.6,27.134-13.2,0-17.967-11.367-17.967-26.4v-77C387.467,105.479,392.967,96.679,405.434,96.679Zm150.7,85.8v13.933c0,17.967-3.667,28.967-17.234,28.967-14.3,0-17.6-12.467-17.6-28.6V67.346c0-16.867,4.034-25.667,16.867-25.667,13.2,0,17.234,9.167,17.234,25.667v15.4h37.766v-11c0-34.1-8.8-64.534-54.633-64.534-38.5,0-55.734,25.3-55.734,63.067V193.846c0,37.034,9.533,65.634,55,65.634,51.7,0,56.467-39.234,56.467-67.467V182.48H556.134Zm114.4-119.534c-33,0-56.467,18.7-56.467,59.767v74.8c0,39.967,18.333,61.234,55.367,61.234,35.567,0,55.733-20.9,55.733-61.6V124.179C725.167,84.212,704.634,62.946,670.534,62.946ZM669.8,96.679c13.567,0,17.6,10.634,17.6,25.3v76.267c0,17.6-4.767,27.134-17.6,27.134-13.2,0-17.966-11.367-17.966-26.4v-77C651.834,105.479,657.334,96.679,669.8,96.679Zm81.767,159.134h37.767V125.279c0-17.966,2.933-28.233,16.5-28.233,8.8,0,13.933,4.033,13.933,21.267v137.5H857.9v-129.8c0-18.7,3.3-28.967,16.5-28.967,10.633,0,14.3,7.333,14.3,20.533V255.813h37.767v-145.2c0-37.034-16.867-47.667-37.767-47.667-19.8,0-29.7,10.267-36.3,20.534-4.767-13.567-15.034-20.534-30.434-20.534-15.033,0-26.767,6.967-33.367,19.8-0.366-6.6-.366-11-1.466-16.867H751.2c0.367,8.8.367,17.233,0.367,55V255.813ZM958,319.614h37.767v-77c4.763,8.434,13.933,16.134,30.063,16.134,28.97,0,43.27-18.7,43.27-62.334V118.679c0-37.033-12.47-55.733-39.23-55.733-18.7,0-29.34,9.533-34.836,21.633a120.726,120.726,0,0,0-1.467-18.7H957.633C958,77.612,958,94.846,958,120.513v199.1Zm37.767-193.235c0-22,6.963-29.333,19.063-29.333,11,0,16.5,7.7,16.5,24.933v74.8c0,17.233-3.66,28.233-17.96,28.233-13.936,0-17.6-13.567-17.6-32.633v-66Z"/>
</svg>
