<?xml version="1.0" encoding="UTF-8"?>
<svg id="katman_1" data-name="katman 1" xmlns="http://www.w3.org/2000/svg" viewBox="0 0 1492.87956 371.96866">
  <defs>
    <style>
      .cls-1, .cls-2 {
        fill: #fff;
      }

      .cls-2 {
        fill-rule: evenodd;
      }

      .cls-3 {
        fill: #0f8bcc;
      }
    </style>
  </defs>
  <g>
    <rect class="cls-3" x="123.33333" width="123.33333" height="123.33333"/>
    <rect class="cls-1" y="246.66667" width="370" height="123.33333"/>
    <rect class="cls-1" x="246.66667" y="123.33333" width="123.33333" height="130.82336"/>
  </g>
  <path id="algoComp" class="cls-2" d="M539.91358,163.33467c0-30.434-12.833-50.967-49.134-50.967-41.8,0-52.434,24.567-52.434,52.067v2.2h37.034v-2.934c0-11.733,2.567-20.533,13.934-20.533s13.2,8.433,13.2,23.1v24.2h-4.4c-34.1,0-65.634,12.467-65.634,59.40001v3.3c0,28.60001,11.367,55.00002,39.967,55.00002,14.667,0,24.933-5.134,31.534-16.867.367,2.567,1.467,10.267,2.2,13.933h34.467c-.366-7.33299-.733-26.76601-.733-38.867v-103.03202h-.00098ZM503.24658,241.06766c0,25.3-5.5,34.10001-18.334,34.10001-11.733,0-16.5-9.534-16.5-22.73399v-2.93201c0-23.834,11.367-30.43401,28.6-30.43401h6.233v22h.001ZM609.57958,305.23467V49.66667h-37.767v255.568h37.767ZM747.07957,162.96766c0-20.167.366-35.934.733-47.667h-32.633c-1.11679,5.55582-1.73059,11.20099-1.83401,16.867-2.93301-10.267-11.367-19.8-31.16699-19.8-36.66699,0-46.2,31.9-46.2,57.93299v71.5c0,32.633,7.7,59.39999,42.16701,59.39999,15.767,0,26.39999-6.60001,31.16699-17.233v20.53401c0,24.2-2.56699,35.93401-18.33401,35.93401-15.033,0-16.866-12.83401-16.866-17.96701v-.73401h-37.76598v.73401c0,20.89999,7.33299,49.5,52.8,49.5,53.89999,0,57.93399-35.20001,57.93399-77.367v-131.634h-.00101ZM673.74557,172.50066c0-18.333,6.59999-26.033,18.7-26.033,15.39999,0,16.867,13.933,16.867,30.067v55.733c0,23.10001-2.56699,35.93401-18.70001,35.93401-12.467,0-16.867-9.89999-16.867-28.967v-66.734h.00002ZM829.94557,112.36766c-33,0-56.46701,18.7-56.46701,59.767v74.8c0,39.967,18.33398,61.23401,55.367,61.23401,35.56702,0,55.73401-20.89999,55.73401-61.60001v-72.968c0-39.967-20.53299-61.233-54.633-61.233h-.00101ZM829.21257,146.10166c13.56601,0,17.60001,10.634,17.60001,25.3v76.267c0,17.60001-4.767,27.134-17.60001,27.134-13.20001,0-17.96701-11.367-17.96701-26.39999v-77c.00104-16.50201,5.50104-25.302,17.96802-25.302l-.00101.00099ZM979.91258,231.90166v13.933c0,17.967-3.66699,28.967-17.23401,28.967-14.29999,0-17.59998-12.467-17.59998-28.60001V116.76767c0-16.867,4.034-25.667,16.867-25.667,13.20001,0,17.23401,9.167,17.23401,25.667v15.4h37.76599v-11c0-34.1-8.79999-64.534-54.633-64.534-38.5,0-55.73401,25.3-55.73401,63.067v123.56699c0,37.034,9.53299,65.63399,55,65.63399,51.70001,0,56.46698-39.23401,56.46698-67.46701v-9.53297h-38.133ZM1094.3126,112.36767c-33,0-56.46698,18.7-56.46698,59.767v74.8c0,39.967,18.33301,61.23401,55.367,61.23401,35.56702,0,55.73297-20.89999,55.73297-61.60001v-72.968c.00098-39.967-20.53204-61.233-54.63202-61.233h-.00098ZM1093.57957,146.10067c13.56702,0,17.59998,10.634,17.59998,25.3v76.267c0,17.60001-4.76703,27.134-17.59998,27.134-13.20001,0-17.966-11.367-17.966-26.39999v-77c0-16.50101,5.5-25.30101,17.966-25.30101ZM1175.3466,305.23467h37.76697v-130.534c0-17.966,2.93298-28.233,16.5-28.233,8.79999,0,13.93298,4.033,13.93298,21.267v137.49999h38.13306v-129.8c0-18.7,3.29999-28.967,16.5-28.967,10.633,0,14.29999,7.333,14.29999,20.533v138.23401h37.76703v-145.2c0-37.034-16.867-47.667-37.76697-47.667-19.79999,0-29.70001,10.267-36.29999,20.534-4.76703-13.567-15.034-20.534-30.43402-20.534-15.03302,0-26.76703,6.967-33.367,19.8-.36603-6.6-.36603-11-1.466-16.867h-35.93304c.367,8.8.367,17.233.367,55v134.93399ZM1381.77958,369.03568h37.76697v-77c4.763,8.43401,13.93298,16.134,30.06299,16.134,28.96997,0,43.27002-18.7,43.27002-62.334v-77.73502c0-37.033-12.46997-55.733-39.22998-55.733-18.70001,0-29.34003,9.533-34.836,21.633-.0033-6.26195-.49377-12.51414-1.46698-18.7h-35.93402c.367,11.733.367,28.967.367,54.634v199.10101ZM1419.54655,175.80068c0-22,6.96301-29.333,19.06299-29.333,11,0,16.5,7.7,16.5,24.933v74.80001c0,17.233-3.66003,28.233-17.96002,28.233-13.93597,0-17.59998-13.567-17.59998-32.633v-66l-.00299-.00002Z"/>
</svg>